# Blender v3.2.0 OBJ File: ''
# www.blender.org
mtllib table.mtl
o Cube
v 0.400000 0.540000 -0.400000
v 0.400000 0.500000 -0.400000
v 0.400000 0.540000 0.400000
v 0.400000 0.500000 0.400000
v -0.400000 0.540000 -0.400000
v -0.400000 0.500000 -0.400000
v -0.400000 0.540000 0.400000
v -0.400000 0.500000 0.400000
v -0.360000 0.500000 -0.400000
v -0.360000 0.540000 0.400000
v -0.360000 0.500000 0.400000
v -0.360000 0.540000 -0.400000
v 0.360000 0.500000 0.400000
v 0.360000 0.540000 -0.400000
v 0.360000 0.500000 -0.400000
v 0.360000 0.540000 0.400000
v -0.400000 0.500000 -0.360000
v 0.400000 0.540000 -0.360000
v -0.400000 0.540000 -0.360000
v 0.400000 0.500000 -0.360000
v -0.360000 0.500000 -0.360000
v -0.360000 0.540000 -0.360000
v 0.360000 0.540000 -0.360000
v 0.360000 0.500000 -0.360000
v -0.400000 0.500000 0.360000
v 0.400000 0.540000 0.360000
v -0.360000 0.500000 0.360000
v -0.360000 0.540000 0.360000
v 0.360000 0.540000 0.360000
v 0.360000 0.500000 0.360000
v -0.400000 0.540000 0.360000
v 0.400000 0.500000 0.360000
v -0.400000 0.000000 0.360000
v -0.400000 0.000000 0.400000
v -0.360000 0.000000 -0.400000
v -0.400000 0.000000 -0.400000
v 0.360000 0.000000 0.400000
v 0.400000 0.000000 0.400000
v 0.400000 0.000000 -0.360000
v 0.400000 0.000000 -0.400000
v -0.360000 0.000000 0.400000
v -0.360000 0.000000 0.360000
v 0.360000 0.000000 -0.400000
v 0.360000 0.000000 0.360000
v -0.400000 0.000000 -0.360000
v -0.360000 0.000000 -0.360000
v 0.360000 0.000000 -0.360000
v 0.400000 0.000000 0.360000
vt 0.380000 0.780000
vt 0.400000 0.780000
vt 0.400000 0.800000
vt 0.380000 0.800000
vt 0.650000 0.380000
vt 0.670000 0.380000
vt 0.670000 0.400000
vt 0.650000 0.400000
vt 0.690000 0.420000
vt 0.670000 0.420000
vt 0.670000 0.400000
vt 0.690000 0.400000
vt 0.420000 0.800000
vt 0.420000 0.780000
vt 0.670000 0.780000
vt 0.670000 0.800000
vt 0.690000 0.020000
vt 0.670000 0.020000
vt 0.670000 0.000000
vt 0.690000 0.000000
vt 0.420000 0.420000
vt 0.400000 0.420000
vt 0.400000 0.400000
vt 0.420000 0.400000
vt 0.400000 0.800000
vt 0.400000 0.780000
vt 0.650000 0.000000
vt 0.650000 0.020000
vt 0.400000 0.020000
vt 0.400000 0.000000
vt 0.670000 0.020000
vt 0.020000 0.780000
vt 0.020000 0.800000
vt 0.000000 0.780000
vt 0.000000 0.800000
vt 0.380000 0.380000
vt 0.380000 0.020000
vt 0.400000 0.020000
vt 0.400000 0.380000
vt 0.000000 0.380000
vt 0.000000 0.020000
vt 0.020000 0.020000
vt 0.020000 0.380000
vt 0.000000 0.400000
vt 0.020000 0.400000
vt 0.020000 0.420000
vt 0.000000 0.420000
vt 0.380000 0.400000
vt 0.380000 0.420000
vt 0.690000 0.800000
vt 0.690000 0.780000
vt 0.940000 0.780000
vt 0.940000 0.800000
vt 0.690000 0.400000
vt 0.670000 0.400000
vt 0.670000 0.380000
vt 0.690000 0.380000
vt 0.670000 0.400000
vt 0.670000 0.420000
vt 0.670000 0.780000
vt 0.400000 0.400000
vt 0.400000 0.420000
vt 0.670000 0.800000
vt 0.020000 0.400000
vt 0.380000 0.400000
vt 0.020000 0.000000
vt 0.380000 0.000000
vt 0.020000 0.800000
vt 0.040000 0.800000
vt 0.040000 0.820000
vt 0.020000 0.820000
vt 0.000000 0.800000
vt 0.020000 0.800000
vt 0.020000 0.820000
vt 0.000000 0.820000
vt 0.060000 0.800000
vt 0.080000 0.800000
vt 0.080000 0.820000
vt 0.060000 0.820000
vt 0.040000 0.800000
vt 0.060000 0.800000
vt 0.060000 0.820000
vt 0.040000 0.820000
vt 0.960000 0.250000
vt 0.980000 0.250000
vt 0.980000 0.500000
vt 0.960000 0.500000
vt 0.960000 0.500000
vt 0.940000 0.500000
vt 0.940000 0.250000
vt 0.960000 0.250000
vt 0.960000 0.750000
vt 0.940000 0.750000
vt 0.940000 0.500000
vt 0.960000 0.500000
vt 0.940000 0.380000
vt 0.940000 0.400000
vt 1.000000 0.250000
vt 0.980000 0.250000
vt 0.980000 0.000000
vt 1.000000 0.000000
vt 0.980000 0.750000
vt 0.960000 0.750000
vt 0.960000 0.500000
vt 0.980000 0.500000
vt 0.960000 0.250000
vt 0.940000 0.250000
vt 0.940000 0.000000
vt 0.960000 0.000000
vt 0.960000 0.000000
vt 0.980000 0.000000
vt 0.980000 0.250000
vt 0.960000 0.250000
vt 0.940000 0.400000
vt 0.940000 0.420000
vt 0.980000 0.250000
vt 1.000000 0.250000
vt 1.000000 0.500000
vt 0.980000 0.500000
vt 0.940000 0.000000
vt 0.940000 0.020000
vt 0.400000 0.400000
vt 0.400000 0.380000
vn 0.0000 1.0000 -0.0000
vn 0.0000 0.0000 1.0000
vn -1.0000 0.0000 0.0000
vn 0.0000 0.0000 -1.0000
vn 1.0000 0.0000 0.0000
vn -0.0000 -1.0000 0.0000
usemtl Material
s off
f 28/1/1 31/2/1 7/3/1 10/4/1
f 11/5/2 10/6/2 7/7/2 8/8/2
f 17/9/3 19/10/3 5/11/3 6/12/3
f 6/13/4 9/14/4 35/15/4 36/16/4
f 32/17/5 26/18/5 3/19/5 4/20/5
f 15/21/4 14/22/4 1/23/4 2/24/4
f 6/13/4 5/25/4 12/26/4 9/14/4
f 4/27/2 13/28/2 37/29/2 38/30/2
f 13/28/2 16/31/2 10/6/2 11/5/2
f 29/32/1 28/1/1 10/4/1 16/33/1
f 26/34/1 29/32/1 16/33/1 3/35/1
f 4/27/2 3/19/2 16/31/2 13/28/2
f 9/14/4 12/26/4 14/22/4 15/21/4
f 27/36/6 30/37/6 13/38/6 11/39/6
f 9/40/6 15/41/6 24/42/6 21/43/6
f 1/44/1 14/45/1 23/46/1 18/47/1
f 14/45/1 12/48/1 22/49/1 23/46/1
f 8/50/3 25/51/3 33/52/3 34/53/3
f 2/54/5 1/55/5 18/56/5 20/57/5
f 15/21/4 2/24/4 40/58/4 43/59/4
f 25/51/3 31/60/3 19/10/3 17/9/3
f 12/48/1 5/61/1 19/62/1 22/49/1
f 8/50/3 7/63/3 31/60/3 25/51/3
f 21/43/6 24/42/6 30/37/6 27/36/6
f 18/47/1 23/46/1 29/32/1 26/34/1
f 23/46/1 22/49/1 28/1/1 29/32/1
f 17/64/6 21/43/6 27/36/6 25/65/6
f 20/57/5 18/56/5 26/18/5 32/17/5
f 24/42/6 20/66/6 32/67/6 30/37/6
f 22/49/1 19/62/1 31/2/1 28/1/1
f 44/68/6 48/69/6 38/70/6 37/71/6
f 33/72/6 42/73/6 41/74/6 34/75/6
f 36/76/6 35/77/6 46/78/6 45/79/6
f 43/80/6 40/81/6 39/82/6 47/83/6
f 21/84/2 17/85/2 45/86/2 46/87/2
f 27/88/5 11/89/5 41/90/5 42/91/5
f 9/92/5 21/93/5 46/94/5 35/95/5
f 2/54/5 20/57/5 39/96/5 40/97/5
f 20/98/2 24/99/2 47/100/2 39/101/2
f 25/102/4 27/103/4 42/104/4 33/105/4
f 13/106/3 30/107/3 44/108/3 37/109/3
f 24/110/3 15/111/3 43/112/3 47/113/3
f 17/9/3 6/12/3 36/114/3 45/115/3
f 30/116/4 32/117/4 48/118/4 44/119/4
f 32/17/5 4/20/5 38/120/5 48/121/5
f 11/5/2 8/8/2 34/122/2 41/123/2
